<?xml version="1.0" encoding="UTF-8"?>
<svg id="_图层_1" data-name="图层 1" xmlns="http://www.w3.org/2000/svg" version="1.1" viewBox="0 0 500 500">
  <defs>
    <style>
      .cls-1 {
        fill: #e60012;
        stroke-width: 0px;
      }
    </style>
  </defs>
  <path class="cls-1" d="M147.84,412.75c-.11,0-.36-.03-.36-.32v-113.41s205.12-205.12,205.12-205.12c7.81-7.81,18.18-12.11,29.22-12.11s21.26,4.32,28.83,12.16c7.37,7.63,11.38,17.7,11.29,28.36-.09,10.67-4.28,20.68-11.8,28.2L148,412.64c-.1.1-.14.1-.16.1Z"/>
  <polygon class="cls-1" points="106.59 387.16 65.89 377.7 37.34 408.21 49.49 448.2 90.19 457.66 118.74 427.15 106.59 387.16"/>
  <path class="cls-1" d="M421.94,42.4H131.19l-56.4,56.4,50.7,24.31h296.44c22.25,0,40.36-18.1,40.36-40.36s-18.1-40.36-40.36-40.36Z"/>
  <path class="cls-1" d="M420.34,417.68l41.96-41.96V82.75c0-22.25-18.1-40.36-40.36-40.36s-40.36,18.1-40.36,40.36v275.24l38.76,59.69Z"/>
</svg>